PathFileType	3	(X/Y/Z)	D:\minhoCalibration\240510\subject3_KPNP\preferred\preferred07.trc
DataRate	CameraRate	NumFrames	NumMarkers	Units	OrigDataRate	OrigDataStartFrame	OrigNumFrames
200.0	200.0	33	10	mm	200.0	105	126	
Frame#	Time	Left_Ankle_Outer1			Left_Ankle_Inner1			Left_Knee_Outer1			Left_Knee_Inner1			Left_Wrist1			Right_Wrist1			Right_Knee_Inner1			Right_Knee_Outer1			Right_Ankle_Inner1			Right_Ankle_Outer1			
		X1	Y1	Z1	X2	Y2	Z2	X3	Y3	Z3	X4	Y4	Z4	X5	Y5	Z5	X6	Y6	Z6	X7	Y7	Z7	X8	Y8	Z8	X9	Y9	Z9	X10	Y10	Z10	
105	0.515	-292.56506	93.453667	-528.89136	-348.12677	103.438	-535.27234	-233.81842	506.20746	-381.48148	-342.1601	506.10126	-382.39389	-190.55222	869.89124	-560.69897	-534.33289	889.65253	-673.43774	-563.00726	433.11847	-728.80328	-633.19141	512.31598	-783.79089	-427.5488	179.37746	-1031.7727	-493.61328	219.37657	-1094.2345
106	0.52	-292.16467	93.92231	-528.61591	-347.81189	104.21033	-534.76117	-231.01581	505.72903	-380.32254	-339.26456	505.96243	-381.22385	-186.39935	872.43842	-558.29297	-533.24603	893.42426	-662.25208	-568.89532	435.92688	-711.27826	-638.79059	515.80115	-765.85028	-433.77771	190.64781	-1023.8968	-503.0806	230.98598	-1084.1479
107	0.525	-291.74908	94.463821	-528.34644	-347.45676	104.91867	-534.23621	-227.95549	505.71524	-379.58524	-334.63376	505.65988	-379.70612	-182.32144	875.05194	-556.18817	-532.07727	897.55835	-651.1748	-574.01807	439.40002	-692.47717	-643.75262	519.56555	-746.89685	-440.47336	202.84454	-1015.1287	-512.74609	241.81531	-1072.2703
108	0.53	-291.43243	94.956284	-528.05627	-347.02261	105.89639	-533.72571	-224.78856	506.08875	-379.22916	-330.88321	506.55304	-378.59564	-178.31688	877.81006	-554.4328	-530.07812	902.4563	-640.31116	-578.05829	443.28415	-672.33972	-648.177	523.62305	-727.26605	-447.5231	215.78485	-1005.6329	-523.09039	253.27917	-1059.8678
109	0.535	-290.88022	95.646835	-527.86011	-346.69586	106.86198	-533.11926	-221.28969	506.67017	-379.43253	-327.02289	507.89505	-377.45813	-173.591	880.95697	-553.45209	-529.02649	907.08466	-628.35889	-581.14032	447.63867	-652.64685	-651.85175	527.85101	-705.46149	-454.42792	229.58977	-994.67914	-533.39838	264.75055	-1047.0833
110	0.54	-290.32709	96.380699	-527.52032	-346.21024	107.94582	-532.51453	-217.41374	507.56848	-380.40634	-322.62219	509.31586	-376.37491	-169.78343	884.0249	-553.02228	-526.70911	912.57111	-616.90717	-582.79742	452.4314	-632.10101	-655.50354	532.40125	-684.01489	-461.54745	244.75006	-983.14142	-544.21912	276.98825	-1032.8119
111	0.545	-289.95789	97.163979	-527.19885	-345.82654	109.0141	-531.71161	-213.56041	508.5907	-381.76361	-318.39966	511.07806	-375.5112	-165.3463	887.15027	-553.04938	-524.08691	918.32642	-605.01099	-583.38947	457.68323	-611.33398	-658.74542	537.71527	-660.97845	-468.44522	261.03751	-970.68982	-554.94427	289.83472	-1016.8853
112	0.55	-289.39685	98.347023	-526.79749	-345.84531	110.16104	-530.33612	-209.26624	509.7977	-383.77045	-313.87808	512.73755	-374.7616	-160.80412	890.36139	-553.84973	-520.94965	924.1557	-593.43549	-582.18127	462.97012	-591.02319	-661.71088	543.14276	-638.4187	-475.59479	277.95963	-956.76831	-564.83081	302.83646	-999.75159
113	0.555	-288.91794	99.505013	-526.26794	-345.50711	111.71474	-529.27521	-204.94798	510.96445	-386.02606	-309.37646	514.32513	-374.11252	-155.98482	893.3941	-555.40247	-517.93011	930.67474	-580.63031	-580.25873	468.87128	-569.90295	-664.47656	549.44305	-613.30896	-482.40292	295.09427	-941.49146	-574.97498	317.51782	-982.06488
114	0.56	-288.50116	101.09644	-525.77991	-344.38553	113.8606	-529.20886	-201.18315	512.03168	-388.21439	-304.77158	516.01654	-373.46317	-151.15324	896.33899	-557.56317	-512.86304	937.37128	-569.65735	-577.71259	475.24789	-548.78418	-666.68036	556.7981	-588.34344	-490.41788	312.03268	-924.48285	-584.36871	334.04688	-962.95477
115	0.565	-288.03357	102.70608	-525.14008	-344.45963	115.82423	-527.37408	-197.02321	513.3562	-390.75391	-300.0152	517.99176	-373.00385	-146.6315	898.88702	-560.07941	-508.53278	944.10376	-558.71118	-574.75153	482.27017	-527.67102	-667.9079	564.95929	-562.17072	-498.79044	328.58597	-906.42889	-592.59631	351.2605	-944.2511
116	0.57	-287.65125	104.52583	-524.32458	-343.65799	118.24509	-526.68506	-193.21819	514.76166	-393.11218	-295.37241	520.05511	-372.49963	-142.2928	901.42328	-563.14697	-502.99127	951.73566	-547.79175	-571.48108	489.9256	-506.306	-668.50037	573.80969	-534.74146	-507.47568	344.9068	-887.28149	-600.72827	370.42825	-923.65863
117	0.575	-287.06094	106.55305	-523.50049	-343.30051	120.73938	-525.11981	-189.17789	516.40204	-395.54214	-290.60611	522.31812	-372.38672	-137.63351	904.00311	-566.84796	-497.14114	958.9184	-537.53473	-568.09094	498.31427	-484.77191	-668.36682	583.39258	-506.60681	-516.22992	361.13998	-866.95001	-609.56519	388.74622	-901.4873
118	0.58	-286.73669	108.69945	-522.46472	-343.04523	123.3737	-523.40259	-185.25694	518.19757	-397.78189	-286.0531	524.84912	-372.25357	-133.98465	906.22693	-570.88037	-490.99374	966.02301	-528.04205	-564.76697	507.69229	-462.71237	-667.15625	594.11926	-478.25583	-525.45099	377.53555	-846.2168	-617.91547	408.82318	-878.05951
119	0.585	-286.64594	111.02162	-521.35474	-342.79932	126.09055	-521.50079	-182.11609	519.92004	-399.99777	-281.50174	527.44006	-372.28537	-128.58218	908.99023	-576.13281	-484.33905	973.59967	-519.49707	-561.33197	517.95685	-440.08951	-664.94415	606.29315	-449.87872	-534.54224	393.77426	-824.70459	-626.75745	427.88815	-854.11389
120	0.59	-286.62851	113.26192	-519.99561	-342.71054	128.79262	-519.28583	-177.71866	522.31281	-402.02121	-277.18552	530.01074	-372.59485	-126.5534	910.79584	-580.83038	-477.30432	981.6087	-511.71524	-557.93896	529.54529	-416.91302	-661.51453	619.70496	-422.08051	-543.22949	410.54959	-803.25598	-636.2691	447.58743	-828.7597
121	0.595	-286.23022	115.89977	-518.98798	-342.67499	131.70154	-516.87512	-174.21786	524.3512	-404.13281	-272.51001	532.92883	-372.98248	-122.43152	913.09253	-586.77814	-471.54456	989.92896	-503.14468	-554.25958	542.59076	-391.95566	-657.22382	634.58112	-394.74976	-553.36652	427.11829	-780.65448	-646.56934	466.60788	-802.02753
122	0.6	-286.97739	117.75949	-517.17731	-342.71783	134.53581	-514.32068	-169.7868	526.93396	-406.11282	-267.81168	535.90265	-373.35037	-119.19037	915.19269	-592.80927	-464.56192	997.28876	-497.99844	-550.1546	556.81378	-366.84595	-651.27954	650.2287	-368.74576	-563.76776	444.05304	-757.49091	-656.76208	486.19186	-774.82355
123	0.605	-286.82822	120.12108	-516.05133	-342.82285	137.32942	-511.6207	-165.88568	529.22864	-408.47748	-262.81891	538.84344	-373.54758	-116.26951	917.17139	-599.27301	-456.72736	1005.4763	-492.94131	-545.15955	572.38806	-342.00677	-644.92749	667.44641	-342.26767	-575.492	460.90002	-733.41425	-667.29651	504.97931	-746.31323
124	0.61	-287.1615	122.34695	-514.73163	-343.16843	139.77081	-508.76361	-161.4852	531.70117	-410.84952	-257.64554	542.0271	-373.80533	-113.83012	918.94592	-606.00665	-449.68051	1014.5421	-486.68924	-539.12939	588.82825	-316.89316	-637.36053	685.44165	-317.24408	-587.17725	478.02075	-708.83386	-678.64398	524.0365	-717.24884
125	0.615	-287.65967	124.35248	-513.33466	-343.26984	142.81197	-505.59247	-157.11528	534.03827	-413.70514	-252.21849	545.62091	-373.45624	-111.76196	920.63776	-613.11578	-442.76917	1022.3075	-483.08466	-531.40222	606.20844	-292.37323	-628.54401	704.31366	-292.87946	-599.89276	495.26236	-682.91003	-690.216	543.17938	-686.95703
126	0.62	-288.50671	126.22572	-511.82742	-343.6069	145.31277	-502.63672	-152.66348	536.20593	-416.82126	-246.37321	548.71216	-373.39996	-110.02804	922.17603	-620.4494	-436.36258	1030.2759	-479.07275	-524.23322	624.76855	-267.55426	-618.69537	724.01788	-269.14795	-612.44727	512.78479	-656.45868	-701.94299	562.48596	-656.26257
127	0.625	-288.70868	128.24448	-510.81973	-344.06805	147.77742	-499.71619	-148.55034	537.91998	-420.26328	-240.28566	551.4491	-373.1633	-109.0327	923.51215	-627.69489	-430.10742	1037.8365	-476.20416	-514.62439	644.09784	-244.33406	-607.25555	743.8642	-246.98267	-625.31702	530.52069	-628.78772	-713.58563	581.83575	-623.67236
128	0.63	-289.94983	129.78154	-509.23859	-344.54791	149.89891	-496.8313	-144.7317	539.33081	-424.03372	-233.94194	553.91241	-373.01569	-108.66344	924.45233	-634.76569	-423.31216	1045.4863	-474.10959	-503.84308	663.80145	-222.28107	-594.75439	765.02789	-224.32564	-638.09448	548.17432	-599.73236	-725.64105	599.95294	-590.26215
129	0.635	-290.48666	131.35759	-508.23761	-344.89322	151.64081	-493.77744	-141.21889	540.29022	-428.2532	-227.60931	555.92877	-372.75076	-108.45515	925.40765	-641.88116	-417.18188	1053.0762	-471.97394	-491.05667	684.30811	-202.19446	-580.77118	786.51599	-202.80254	-650.46313	566.09094	-569.72681	-736.82281	619.08337	-555.37183
130	0.64	-291.19476	132.8486	-507.29816	-345.28976	153.35771	-491.40686	-138.11699	540.79779	-432.70898	-220.94911	557.29578	-372.78696	-108.62714	926.22424	-648.75586	-411.5257	1060.213	-470.20862	-478.81546	704.43878	-182.63841	-565.36401	808.9068	-182.03204	-662.64246	583.58795	-538.4729	-747.27472	639.06268	-518.76685
131	0.645	-291.46234	134.18027	-506.70129	-345.51932	154.18462	-488.39685	-135.62828	540.91071	-437.276	-214.43124	558.42761	-372.16885	-109.48396	926.84424	-655.40625	-406.47504	1066.9698	-468.70148	-465.07404	724.97339	-164.77083	-548.73016	831.65948	-162.79857	-674.50476	601.21307	-505.75812	-756.5235	657.63544	-482.70688
132	0.65	-293.133	134.8192	-505.73486	-346.26111	155.62271	-486.43747	-133.66701	540.56421	-441.8736	-208.64053	558.55493	-373.02545	-110.66675	927.17517	-661.81372	-401.00192	1073.5623	-468.0658	-450.60696	745.54376	-148.26242	-530.19775	854.55511	-145.75932	-686.10797	618.53717	-471.4158	-765.35413	676.72797	-444.4686
133	0.655	-294.23779	135.50243	-505.0065	-346.80716	156.45656	-484.59958	-132.37563	540.07153	-446.16995	-202.88242	558.75574	-373.32556	-112.24046	927.30432	-667.87341	-396.09671	1079.8501	-467.42059	-435.43701	766.14758	-133.32169	-510.98444	877.29895	-130.14119	-696.87311	636.04358	-435.74103	-772.82513	698.12274	-402.14706
134	0.66	-295.30478	136.0338	-504.49307	-347.34396	157.13065	-483.11716	-131.60342	539.46283	-449.95023	-199.07298	557.7876	-373.66949	-114.66595	927.01135	-673.36072	-391.49393	1085.7961	-467.20795	-419.88104	786.64526	-120.02093	-490.50769	899.46265	-117.06731	-706.76404	653.44391	-397.78281	-778.68512	718.27594	-361.68008
135	0.665	-296.30807	136.52068	-504.12589	-348.15729	157.6035	-482.04105	-131.20059	538.94147	-453.01721	-195.51614	557.3255	-373.81635	-116.75192	926.60107	-678.90424	-387.3324	1091.5365	-467.06723	-403.965	806.94708	-108.36626	-468.42188	920.99609	-106.03117	-715.84827	671.15955	-358.68103	-783.0025	738.79156	-319.29773
136	0.67	-297.32935	136.64763	-504.04333	-349.06842	157.8907	-481.31738	-131.33772	538.04462	-455.44159	-193.50298	556.66956	-373.95828	-119.45058	925.78888	-683.86633	-382.89471	1096.7433	-467.75143	-388.06726	826.81952	-98.620079	-446.86649	941.76184	-97.531967	-723.57758	689.34821	-317.70847	-785.41095	759.97382	-275.40015
137	0.675	-298.38681	136.82333	-504.01907	-349.96936	157.90956	-480.98434	-131.7386	537.29852	-456.97424	-193.06578	556.22571	-373.79617	-122.66469	924.55731	-688.16296	-379.18533	1101.5592	-468.47443	-372.11935	846.22559	-90.302528	-424.11368	961.06598	-91.572708	-729.9057	706.94012	-273.20053	-785.4826	781.99139	-230.33662
